<svg width="24" height="25" viewBox="0 0 24 25" fill="none" xmlns="http://www.w3.org/2000/svg">
    <g clip-path="url(#clip0_43_4632)">
        <path d="M6 18.4999H18C18.55 18.4999 19 18.9499 19 19.4999C19 20.0499 18.55 20.4999 18 20.4999H6C5.45 20.4999 5 20.0499 5 19.4999C5 18.9499 5.45 18.4999 6 18.4999ZM11.01 14.3999C10.23 15.1699 8.97 15.1699 8.19 14.3899L6 12.1999C5.45 11.6499 5.46 10.7599 6.03 10.2299C6.57 9.70994 7.43 9.72994 7.95 10.2499L9.6 11.8999L16.03 5.46994C16.57 4.92994 17.44 4.92994 17.98 5.46994L18.02 5.50994C18.56 6.04994 18.56 6.92994 18.01 7.46994L11.01 14.3999Z" fill="#27AE60"/>
    </g>
    <defs>
    <clipPath id="clip0_43_4632">
    <rect width="24" height="24" fill="white" transform="translate(0 0.5)"/>
    </clipPath>
    </defs>
</svg>
